<?xml version="1.0" encoding="UTF-8"?>
<svg width="256px" height="256px" viewBox="0 0 256 256" version="1.1" xmlns="http://www.w3.org/2000/svg" xmlns:xlink="http://www.w3.org/1999/xlink">
    <title>256x256@1x</title>
    <g id="256x256" stroke="none" stroke-width="1" fill="none" fill-rule="evenodd">
        <g id="Generated-Image-October-23,-2025---10_22PM备份-2" transform="translate(0, 30)" fill-rule="nonzero">
            <path d="M146.154658,0.372747615 C153.38135,0.292220167 160.607851,0.231128217 167.834882,0.193845801 C171.19185,0.175938751 174.548509,0.151706539 177.9053,0.112263365 C181.153754,0.0743384695 184.401913,0.0540150604 187.650572,0.0451467831 C188.880826,0.0388390321 190.111068,0.0265249849 191.341194,0.00767318952 C208.237271,-0.240613454 221.273846,5.53948574 233.546341,16.925721 C243.708723,27.3084254 248.899783,41.1889085 249.091248,55.619013 C248.938644,67.1203238 245.431365,76.0646599 240.101138,86.0168509 C238.922916,88.2356729 237.808493,90.4853365 236.695743,92.7375975 C237.327105,93.20829 237.958468,93.6789825 238.608962,94.1639385 C245.354202,99.8637231 250.099668,107.792645 253.079368,116.044616 C253.302651,116.656627 253.525934,117.268639 253.755984,117.899196 C255.67184,123.604114 256.073994,128.826777 255.989617,134.819714 C255.974611,136.18829 255.974611,136.18829 255.959302,137.584514 C255.612711,154.219618 250.416882,167.371553 238.420335,179.059887 C237.658365,179.864404 237.658365,179.864404 236.881002,180.685174 C233.306585,184.192654 229.255498,186.497271 224.839172,188.771145 C224.294997,189.055591 223.750822,189.340037 223.190157,189.633103 C212.372682,194.942419 201.403476,195.030965 189.626505,195.06323 C187.91092,195.073769 186.195336,195.084548 184.479754,195.095554 C180.89802,195.114861 177.316442,195.123193 173.734658,195.12519 C169.174994,195.129751 164.616656,195.174105 160.057348,195.22836 C156.518063,195.263853 152.979092,195.271631 149.439646,195.272039 C147.760033,195.276646 146.080413,195.291027 144.400978,195.315933 C133.153984,195.468879 124.005613,194.762985 115.134487,187.081488 C113.808589,185.626913 112.736228,184.161361 111.662817,182.512779 C111.258185,181.934019 110.853554,181.35526 110.436661,180.758962 C109.09108,178.803367 107.795268,176.821208 106.505882,174.828072 C106.021306,174.087203 105.536729,173.346334 105.037469,172.583015 C103.995093,170.988881 102.954502,169.393576 101.91554,167.79721 C99.1315708,163.520886 96.3330037,159.254162 93.5343899,154.987433 C92.9624913,154.115099 92.3905927,153.242765 91.8013638,152.343997 C86.0448668,143.576025 80.1921244,134.874467 74.3146196,126.187485 C73.5870514,125.111827 73.5870514,125.111827 72.8447848,124.014438 C71.8857249,122.596548 70.9266635,121.178659 69.9676007,119.760771 C69.5069182,119.079686 69.0462358,118.398602 68.5715932,117.696878 C68.1215747,117.031755 67.6715562,116.366631 67.2079008,115.681352 C62.7101673,109.029223 58.2572506,102.347672 53.8272993,95.6501318 C50.9231602,91.2676636 47.9551338,86.9405825 44.9098193,82.6550024 C43.507959,80.6034954 42.23199,78.4677319 40.9545415,76.3363625 C40.6699838,115.36267 40.3854261,154.388977 40.0922455,194.597899 C29.4535564,194.597899 22.5577985,192.465571 14.2233642,185.96567 C13.7020457,185.57287 13.1807271,185.18007 12.6436109,184.775367 C8.83329885,181.477583 6.66996011,177.449678 4.41474677,173.017327 C4.11622519,172.433273 3.8177036,171.849219 3.51013591,171.247467 C3.23287279,170.674263 2.95560967,170.101058 2.66994463,169.510484 C2.42387448,169.001958 2.17780432,168.493432 1.9242775,167.969496 C0.389979374,163.482779 0.316669016,158.752587 0.299722597,154.052898 C0.296552202,153.478639 0.293381806,152.90438 0.290115343,152.31272 C0.280684566,150.405132 0.277298683,148.497585 0.273999504,146.589977 C0.268591192,145.215448 0.262859131,143.84092 0.256828844,142.466394 C0.238766278,137.968514 0.22976107,133.470634 0.221158606,128.972727 C0.217665971,127.420099 0.21411589,125.867471 0.210509181,124.314843 C0.194101964,117.021938 0.181823886,109.729041 0.174627344,102.436121 C0.16619596,94.0322409 0.143479599,85.6285567 0.10866093,77.2247456 C0.0826295401,70.7175766 0.069883149,64.2104639 0.0670291733,57.7032438 C0.0650059078,53.8215505 0.0573250661,49.9400672 0.0355888422,46.0584302 C0.0154669916,42.4065504 0.0118824097,38.7550182 0.0207240484,35.1030972 C0.021150083,33.7672431 0.0157329668,32.4313715 0.00386095252,31.0955701 C-0.0796615507,21.1364126 1.14622446,13.6113984 8.16708189,6.18264234 C13.9840041,1.20259143 20.7864499,0.567688992 28.2289382,0.800987099 C36.5298216,1.91529578 41.3086288,5.54119914 46.242473,11.9960803 C48.7998797,15.4710403 51.1669346,19.0583287 53.5184643,22.6749204 C54.0383847,23.4680752 54.5583052,24.26123 55.0939808,25.0784198 C56.7433775,27.595491 58.3884217,30.1153714 60.0328414,32.6357034 C62.1886923,35.9348886 64.346661,39.2326728 66.5067984,42.529047 C67.2996074,43.7390564 67.2996074,43.7390564 68.1084328,44.9735105 C72.9554836,52.3509122 77.9288002,59.6380278 82.9334748,66.9087978 C85.656259,70.8845189 88.3092188,74.9070686 90.9677119,78.9260312 C98.0595136,89.6387828 105.291799,100.245014 112.525113,110.865278 C112.951949,56.598771 112.951949,56.598771 113.387409,1.23597051 C124.345156,1.23597051 132.029813,4.27823304 140.118586,11.5946453 C140.647686,12.0252788 141.176785,12.4559124 141.721918,12.8995955 C147.956488,18.3814203 152.452994,27.6396623 153.915323,35.7648864 C154.159417,39.6656752 154.133127,43.558136 154.111108,47.4653922 C154.110621,48.648416 154.110896,49.8314403 154.111871,51.0144638 C154.112364,54.2118987 154.102252,57.4092209 154.090186,60.6066298 C154.079376,63.9533884 154.07839,67.3001499 154.076345,70.6469233 C154.070994,76.9781819 154.056853,83.3093889 154.039526,89.6406248 C154.020224,96.8511934 154.010761,104.061764 154.002111,111.272352 C153.984103,126.099221 153.953785,140.92604 153.915323,155.752869 C160.666433,155.738785 167.416732,155.691374 174.167491,155.621152 C176.462679,155.59879 178.756985,155.588722 181.052386,155.58406 C184.357789,155.576023 187.661961,155.540593 190.967106,155.499972 C191.987755,155.503366 193.008404,155.506761 194.059982,155.510259 C201.471139,155.380203 205.801797,153.788254 211.096329,148.63128 C214.4182,143.212042 216.274389,137.075353 215.138342,130.719405 C213.352259,125.730658 211.209675,121.366458 206.515381,118.634284 C201.488419,116.453706 197.414233,115.647833 191.964136,115.602888 C191.343889,115.588527 190.723642,115.574166 190.0846,115.559369 C187.80111,115.510016 185.517205,115.48177 183.233388,115.45115 C178.11135,115.36213 172.989311,115.27311 167.71206,115.181393 C167.71206,102.362533 167.71206,89.5436728 167.71206,76.3363625 C180.107565,76.1745082 180.107565,76.1745082 183.962214,76.1570161 C191.493943,75.979339 197.853376,75.084495 203.6165,69.8817903 C207.661254,65.3543169 208.644913,61.1605382 208.512809,55.2447249 C207.950906,50.6821628 206.017572,47.3857765 202.850623,44.1273582 C195.439146,39.5745181 188.196526,39.6203431 179.784204,39.4875351 C178.527786,39.4588541 177.271393,39.4290777 176.015027,39.3981781 C172.960118,39.3254052 169.905144,39.2674922 166.849763,39.217778 C166.789219,38.189077 166.789219,38.189077 166.72745,37.1395941 C165.76391,23.1750475 159.599798,13.2854139 149.603843,3.8256392 C148.452326,2.67646838 147.302372,1.52572462 146.154658,0.372747615 Z" id="路径" fill="#CB2260"></path>
            <path d="M39.4162257,4.53161345 C45.382795,9.23963981 49.4098034,16.372202 53.5152724,22.6887032 C54.0351619,23.4821116 54.5550513,24.2755201 55.090695,25.0929713 C56.7399933,27.6108475 58.3849394,30.1315338 60.029261,32.6526718 C62.1849834,35.9529122 64.3428234,39.2517511 66.5028319,42.5491796 C67.2955937,43.759576 67.2955937,43.759576 68.1043708,44.9944248 C72.9511325,52.374186 77.9241525,59.6636322 82.9285286,66.9367275 C85.6511504,70.9137201 88.303952,74.9375563 90.9622865,78.9578043 C100.916333,93.9999188 111.084011,108.893126 121.395143,123.691942 C124.297241,127.857857 127.183316,132.033082 130.036535,136.232705 C134.898819,143.384063 139.989969,150.352552 145.142235,157.296725 C145.602738,157.92055 146.063241,158.544375 146.537699,159.187104 C147.409405,160.366468 148.285926,161.542283 149.167798,162.714042 C151.007004,165.200534 152.141499,166.797884 152.666667,169.89504 C151.453372,177.860429 148.252721,183.670149 141.834719,188.622174 C137.523369,191.317568 133.95222,191.685992 129.00883,191.698389 C128.020162,191.745974 128.020162,191.745974 127.011521,191.794521 C121.39164,191.837519 118.315791,189.764274 114.242891,186.031677 C112.278068,183.728882 110.626709,181.27586 108.978484,178.739158 C108.261926,177.667878 108.261926,177.667878 107.530893,176.574956 C105.966483,174.229805 104.419289,171.873792 102.87204,169.517259 C101.778181,167.870549 100.683307,166.224515 99.5874693,164.579124 C96.1205719,159.364339 92.6778736,154.133775 89.2377973,148.901221 C88.0722405,147.130588 86.9065826,145.360021 85.7408228,143.589522 C84.5869004,141.836418 83.4330304,140.083279 82.2792138,138.330105 C81.7160328,137.474397 81.1528518,136.61869 80.5726047,135.737052 C77.863234,131.618605 75.1580036,127.497559 72.4621295,123.370238 C68.0193019,116.577568 63.5686702,109.83291 58.7365256,103.309909 C56.7601987,100.62956 54.9085065,97.8754786 53.0774138,95.0944413 C52.6047539,94.3840026 52.6047539,94.3840026 52.1225453,93.6592116 C48.3327556,87.9377449 44.6598469,82.1433057 40.952099,76.3673073 C40.6675582,115.406096 40.3830175,154.444884 40.0898543,194.666667 C29.4517998,194.666667 22.5564531,192.533656 14.222516,186.031677 C13.7012285,185.638751 13.179941,185.245825 12.6428569,184.840993 C8.83277203,181.542154 6.66956232,177.512961 4.41448348,173.079192 C4.11597969,172.494952 3.81747591,171.910711 3.50992656,171.308766 C3.23267998,170.735379 2.95543339,170.161991 2.66978539,169.571228 C2.42372991,169.062539 2.17767444,168.553851 1.92416273,168.029747 C0.389956115,163.541595 0.31665013,158.80989 0.299704721,154.108699 C0.296534515,153.534256 0.293364309,152.959813 0.29009804,152.367963 C0.280667826,150.459765 0.277282145,148.551608 0.273983163,146.643391 C0.268575173,145.268422 0.262843454,143.893455 0.256813527,142.518488 C0.238752037,138.01917 0.229747367,133.519851 0.221145416,129.020506 C0.217652989,127.467381 0.21410312,125.914257 0.210496626,124.361132 C0.194090388,117.065895 0.181813042,109.770665 0.174616929,102.475413 C0.166186048,94.0688452 0.143471042,85.6624734 0.108654449,77.2559745 C0.0826246121,70.7467245 0.0698789812,64.2375306 0.0670251757,57.7282293 C0.0650020308,53.8452946 0.0573216473,49.96257 0.0355867196,46.0796915 C0.0154660691,42.4266438 0.011881701,38.7739437 0.0207228124,35.1208547 C0.0211488216,33.7845734 0.0157320285,32.4482746 0.00386072225,31.112046 C-0.0796567997,21.1497033 1.1461561,13.6222825 8.1665948,6.19115054 C16.9848488,-1.3613003 29.6026084,-0.424695063 39.4162257,4.53161345 Z" id="路径" fill="#3EAFC2"></path>
            <path d="M0.106503256,20 C0.677344207,20 1.24818516,20 1.83632432,20 C2.92464191,21.19215 2.92464191,21.19215 4.16752848,22.8937441 C4.63698106,23.5322249 5.10643363,24.1707057 5.59011204,24.8285344 C6.09956251,25.5349862 6.60901296,26.2414379 7.13390132,26.9692972 C7.66732264,27.7013773 8.20074397,28.4334574 8.75032957,29.1877218 C17.9630817,41.8936469 26.8315966,54.8483998 35.6575779,67.8244387 C36.0906561,68.4601338 36.5237343,69.0958289 36.9699361,69.7507876 C37.348383,70.3077869 37.7268299,70.8647862 38.1167449,71.4386642 C38.9587932,72.7093445 38.9587932,72.7093445 39.8923877,73.5933555 C39.975778,75.1575975 39.9977978,76.7251276 39.9963971,78.2915876 C39.997586,79.3110336 39.998775,80.3304798 40,81.3808182 C39.9953356,83.0735575 39.9953356,83.0735575 39.990577,84.8004936 C39.9903332,85.9928942 39.9904696,87.1852949 39.9909597,88.3776953 C39.9912088,91.6244434 39.9861086,94.871164 39.9800844,98.1179057 C39.974693,101.507369 39.9741707,104.896832 39.9731431,108.286299 C39.9704503,114.709068 39.9633465,121.131825 39.9546777,127.554588 C39.9450244,134.864838 39.9402583,142.175088 39.9359131,149.485342 C39.9268623,164.527105 39.9116403,179.568856 39.8923877,194.61061 C38.5061593,194.626162 37.1198805,194.637266 35.7335955,194.646486 C34.5756318,194.656476 34.5756318,194.656476 33.3942749,194.666667 C26.1557162,194.478023 19.5040105,190.294687 13.9450718,185.96652 C13.4221725,185.57318 12.8992733,185.179841 12.3605286,184.774581 C8.53866363,181.472267 6.36876563,177.438827 4.10671446,173.000386 C3.80728776,172.41553 3.50786105,171.830673 3.19936081,171.228094 C2.92125703,170.654102 2.64315324,170.08011 2.35662206,169.488724 C2.10980582,168.9795 1.86298958,168.470275 1.60869406,167.945619 C0.065909364,163.441543 -0.00116769113,158.707371 0.00249385571,153.990366 C0.00175485885,153.413359 0.00101585335,152.836352 0,152.24186 C-0.00116014911,150.325421 0.00357119691,148.40905 0.00831395111,146.492618 C0.008558124,145.112095 0.00842056863,143.731573 0.00793121955,142.35105 C0.00768364756,138.615271 0.0127597037,134.879515 0.01880657,131.143741 C0.0242228386,127.235159 0.0247222207,123.326576 0.0257478316,119.417991 C0.0284332577,112.021874 0.0355272452,104.625768 0.0442132303,97.2296558 C0.0538893218,88.8071774 0.0586383811,80.3846984 0.0629778362,71.9622158 C0.0720120429,54.641471 0.0872198253,37.3207362 0.106503256,20 Z" id="路径" fill="#2A4C80"></path>
            <path d="M113.372718,0.738184535 C114.602039,0.718286949 115.831453,0.704150609 117.060878,0.692413095 C117.745493,0.683916778 118.430107,0.675420453 119.135468,0.666666667 C127.120726,0.955114874 134.316238,5.91042547 140.041727,11.1057312 C140.83353,11.7522348 140.83353,11.7522348 141.641329,12.4117991 C147.859694,17.8968143 152.351228,27.1655239 153.806376,35.2966734 C154.050184,39.2272087 154.023661,43.1495316 154.001706,47.0865094 C154.00122,48.2790583 154.001494,49.4716077 154.002467,50.6641562 C154.002959,53.8875342 153.99287,57.1108001 153.980833,60.3341522 C153.970049,63.7079917 153.969064,67.081834 153.967024,70.4556883 C153.961685,76.8382664 153.947576,83.2207931 153.930291,89.6033486 C153.911033,96.8723266 153.901592,104.141307 153.892962,111.410304 C153.874996,126.357361 153.844749,141.304367 153.806376,156.251384 C153.806376,156.549349 154.344058,157.454078 154.666667,157.979309 C154.624526,158.967162 154.582385,159.955015 154.538967,160.972803 C154.474433,162.260894 154.40944,163.548961 154.344058,164.837009 C154.317442,165.489081 154.290827,166.141153 154.263405,166.812985 C154.174037,168.480834 153.996538,170.143397 153.806376,171.802704 C153.238584,172.087812 152.670792,172.37292 152.085795,172.666667 C152.040882,171.40707 152.040882,171.40707 151.995061,170.122028 C151.33605,165.565843 148.554808,162.486827 145.79492,158.951266 C144.689157,157.490928 143.584693,156.029597 142.481457,154.567333 C141.925586,153.836327 141.369716,153.105322 140.797001,152.352164 C138.413981,149.183023 136.128485,145.949245 133.858388,142.697977 C133.440861,142.10166 133.023335,141.505342 132.593156,140.890955 C129.285856,136.155047 126.014714,131.394119 122.763033,126.619547 C122.231872,125.839713 122.231872,125.839713 121.689981,125.044124 C121.184983,124.284247 121.184983,124.284247 120.669784,123.509019 C119.404465,121.653508 119.404465,121.653508 117.877323,119.872659 C113.118891,113.893431 112.529492,109.273811 112.689064,101.762283 C112.688185,100.665548 112.687305,99.5688132 112.686399,98.438844 C112.684685,95.4578094 112.719864,92.4782732 112.76212,89.4975841 C112.799995,86.3728961 112.803321,83.2481664 112.810449,80.1232826 C112.8291,74.217817 112.878426,68.3130358 112.939017,62.4078703 C113.006537,55.6800635 113.03949,48.9522224 113.069667,42.2241585 C113.132462,28.3951054 113.238253,14.5667335 113.372718,0.738184535 Z" id="路径" fill="#A71D5F"></path>
        </g>
    </g>
</svg>